PathFileType	4	(X/Y/Z)	 s10c0101.trc
DataRate	CameraRate	NumFrames	NumMarkers	Units	OrigDataRate	OrigDataStartFrame	OrigNumFrames
200	200	6	49	mm	200	1251	2000
Frame#	Time	racr			lacr			c7			jug			rlel			rdr			llel			ldr			s2			lic			ric			lasi			rasi			rpsi			lpsi			rgt			lgt			rth1			rth2			rth3			rth4			rlfc			rmfc			rsh1			rsh2			rsh3			rsh4			rlmal			rmmal			rcal			rtoe			rmt5			lth1			lth2			lth4			lth3			llfc			lmfc			llmal			lcal			lmt5			lsh1			lsh2			lsh3			lsh4			ltoe			SBIKE			LBIKE			RBIKE			
		X1	Y1	Z1	X2	Y2	Z2	X3	Y3	Z3	X4	Y4	Z4	X5	Y5	Z5	X6	Y6	Z6	X7	Y7	Z7	X8	Y8	Z8	X9	Y9	Z9	X10	Y10	Z10	X11	Y11	Z11	X12	Y12	Z12	X13	Y13	Z13	X14	Y14	Z14	X15	Y15	Z15	X16	Y16	Z16	X17	Y17	Z17	X18	Y18	Z18	X19	Y19	Z19	X20	Y20	Z20	X21	Y21	Z21	X22	Y22	Z22	X23	Y23	Z23	X24	Y24	Z24	X25	Y25	Z25	X26	Y26	Z26	X27	Y27	Z27	X28	Y28	Z28	X29	Y29	Z29	X30	Y30	Z30	X31	Y31	Z31	X32	Y32	Z32	X33	Y33	Z33	X34	Y34	Z34	X35	Y35	Z35	X36	Y36	Z36	X37	Y37	Z37	X38	Y38	Z38	X39	Y39	Z39	X40	Y40	Z40	X41	Y41	Z41	X42	Y42	Z42	X43	Y43	Z43	X44	Y44	Z44	X45	Y45	Z45	X46	Y46	Z46	X47	Y47	Z47	X48	Y48	Z48	X49	Y49	Z49	
1251	6.2550	374.685352	1268.565307	18.692741	461.683940	1216.676664	-307.955467	390.325932	1311.247906	-164.917162	378.036210	1165.871773	-141.303322	436.033322	1004.587593	60.316001	637.222849	886.264856	-9.570090	464.167050	971.768564	-450.163014	651.187358	880.941025	-372.682159	-106.220271	1090.304793	-262.793566	81.883850	1097.308400	-384.475466	38.398424	1140.730606	-86.328533	99.880915	1016.305685	-338.978669	50.125337	1054.776408	-99.107461	-80.968958	1151.904009	-211.257401	-52.970794	1151.951834	-317.433060	-51.417705	1027.046110	-53.077014	-10.683144	960.284302	-428.769327	84.754992	963.516118	-28.315636	172.069902	967.096063	-43.538638	248.424388	928.567909	-41.725413	177.247754	1001.013245	-59.500402	360.733001	892.575896	-67.195389	345.117236	869.556941	-190.694945	278.473542	813.101285	-33.050739	237.943790	734.630075	-44.834649	166.958644	686.386295	-45.264899	260.854656	717.503456	-70.674025	91.624735	611.430322	-54.939866	122.252603	608.394350	-136.235164	41.015123	628.396710	-105.131060	202.243817	445.509249	-90.907230	122.425960	486.209064	-35.627321	50.286874	848.988367	-430.898586	110.104931	788.719376	-412.368629	140.033535	808.107973	-402.311633	130.963312	703.497132	-397.126752	186.926057	614.102307	-370.450900	169.894646	606.331073	-256.778096	124.624259	245.352754	-373.331287	72.463665	217.831943	-335.414621	242.726290	154.874279	-390.070792	142.445545	500.528389	-406.539389	163.266230	417.238217	-390.801450	139.119965	331.616580	-388.655901	190.810219	419.965160	-364.539746	322.736637	180.448354	-330.248040	-204.883337	834.519989	-226.006498	-78.253377	81.451071	-423.695463	-102.650347	80.566651	-24.381344	
1252	6.2600	376.184109	1269.095717	17.768124	460.995310	1217.029578	-308.608673	391.086794	1311.389189	-164.963575	378.370093	1166.196342	-140.329565	436.252789	1004.804210	61.700297	636.919587	886.369025	-9.286657	462.661089	970.680503	-449.113163	651.135454	880.898183	-372.395102	-105.070210	1090.694660	-263.133840	83.780030	1097.339756	-382.758712	37.027512	1143.410385	-84.956279	100.555350	1016.883160	-336.426593	48.794700	1057.150924	-98.133210	-80.420553	1153.460668	-210.944788	-51.581185	1152.908309	-318.007034	-54.180601	1030.726306	-53.750072	-9.583731	960.941974	-428.315303	83.696201	968.428045	-27.328485	170.736147	973.649372	-43.268058	247.915171	937.095188	-40.387098	175.065084	1007.304451	-59.473888	361.915713	904.433914	-66.051579	348.273567	880.911357	-191.417285	282.764666	823.328779	-33.201735	244.222764	743.826884	-44.661544	174.027317	693.966450	-45.322377	267.658723	727.005039	-70.176094	99.599869	615.231864	-54.952993	130.696397	613.493597	-135.986313	47.999592	630.876207	-105.114551	212.700158	450.838189	-90.594795	132.352524	490.173567	-35.406016	49.895712	850.402588	-430.330812	108.829183	789.108036	-412.396303	138.864107	807.840519	-401.618251	128.380723	703.375872	-398.244306	181.171824	612.533712	-371.110020	163.355074	604.380892	-257.517948	116.578272	244.410644	-374.715081	63.810454	217.227010	-336.035773	232.429432	150.813894	-390.004516	136.100764	499.146300	-407.290993	156.124179	415.491049	-391.642273	131.144687	330.077700	-389.485097	183.673586	418.018485	-365.332539	314.146460	174.466798	-329.353719	-204.865278	834.710687	-225.680080	-78.265738	81.452031	-423.709903	-102.649569	80.553488	-24.388597	
1253	6.2650	378.582628	1269.267077	17.015046	460.509854	1217.490969	-309.309847	392.203269	1311.673002	-164.745429	379.245876	1166.587342	-139.444189	436.664415	1004.864729	62.961331	636.606929	886.543761	-9.061753	461.107573	969.654739	-448.293784	651.141692	880.870677	-372.134306	-105.673488	1092.084546	-262.874270	85.305249	1097.453956	-380.936540	35.700634	1145.950993	-83.115801	101.144180	1017.352832	-334.096738	47.709790	1059.332469	-97.097663	-80.558413	1154.686936	-211.332334	-50.485167	1154.099640	-318.371156	-56.936957	1034.919430	-53.458052	-8.845980	961.694231	-427.452126	82.631952	972.970313	-26.318038	169.405410	979.697206	-42.766539	247.247353	944.862660	-39.036772	173.407374	1013.457541	-58.766834	362.554119	916.070904	-64.349144	350.872055	891.984435	-191.527056	286.757753	833.040159	-33.137511	250.269647	752.520933	-44.156763	181.193986	701.082419	-45.177798	274.259724	736.294363	-69.506735	107.087439	618.547755	-55.113818	138.654500	617.884404	-135.713096	55.294013	632.628440	-105.195947	223.294969	455.830215	-90.208587	142.229511	493.788251	-35.145611	49.413923	852.071112	-429.834403	107.584390	789.922214	-412.448483	137.846485	808.206783	-400.884850	126.032853	703.817384	-399.269844	176.038885	611.249964	-371.966991	157.152591	603.095295	-258.425201	108.064982	243.551700	-375.641594	54.996683	217.273037	-336.707251	222.412480	147.916294	-390.546394	130.142641	498.195173	-408.122898	149.147625	414.458064	-392.506893	123.080926	329.295314	-390.395326	176.731460	416.492967	-366.219829	304.495793	169.995880	-329.866473	-204.856628	834.480602	-225.788137	-78.302816	81.473239	-423.745931	-102.688922	80.563114	-24.416432	
1254	6.2700	380.629004	1269.127287	16.332713	459.967961	1218.014320	-310.250709	393.423980	1311.940621	-165.550729	379.911736	1166.977760	-139.643005	436.933503	1004.882005	63.950566	636.389566	886.758258	-8.855266	459.681393	968.631569	-447.123195	651.188227	880.909149	-371.883441	-104.577562	1093.360465	-263.158240	86.460508	1097.662320	-379.089788	34.472761	1148.004597	-81.022733	101.601169	1018.119381	-332.141236	46.764315	1061.285095	-96.037490	-80.195742	1156.729963	-209.646057	-49.430424	1155.502254	-318.804769	-58.559072	1038.344227	-53.516322	-8.398009	962.606471	-426.320412	81.553473	977.175302	-25.159883	168.237690	985.054467	-41.985737	246.545911	951.803187	-37.810554	171.772126	1019.454961	-57.483996	363.283850	926.453711	-64.070162	353.255441	902.279881	-191.067905	290.310679	842.215687	-32.752294	255.873286	760.743889	-43.508949	187.880494	707.703547	-44.786939	280.447902	744.648411	-68.612301	114.427752	621.302314	-55.255603	147.382504	621.990022	-135.215306	62.023108	633.344838	-105.168727	233.933130	460.482824	-89.852207	152.086168	496.695543	-34.855812	48.886083	853.938045	-429.457297	106.450516	791.204727	-412.548613	136.712860	808.984168	-400.282163	124.085999	704.726347	-400.141030	171.581842	610.431983	-372.919697	151.584446	602.567830	-258.908474	99.071062	243.151816	-376.195860	45.973312	217.861184	-337.241148	212.188403	145.672635	-391.063289	124.459433	497.841480	-408.932095	142.380105	413.816358	-393.405123	115.068042	328.913976	-391.144537	170.062231	415.563013	-367.291155	294.658984	166.534272	-330.438994	-204.883428	834.492549	-225.656218	-78.336624	81.498971	-423.771910	-102.721173	80.555744	-24.439785	
1255	6.2750	382.760954	1268.708401	15.742755	459.458941	1218.697255	-311.293930	394.365155	1312.202476	-165.536260	380.698078	1167.269522	-139.315261	437.507837	1004.740174	64.727213	636.228154	886.922481	-8.701332	458.276022	967.755098	-445.918875	651.249707	880.974198	-371.571803	-104.585624	1094.976556	-262.433325	87.292386	1098.050009	-377.426291	33.273306	1149.711917	-78.877727	101.909974	1018.972406	-330.335699	46.052801	1063.035676	-95.062274	-80.015294	1158.651517	-210.496106	-48.798400	1157.053766	-318.460169	-59.117277	1042.111972	-53.210925	-8.319175	963.663685	-425.008794	80.633366	981.147592	-23.829139	167.189858	989.954578	-40.743819	245.946992	957.938433	-36.081566	170.185447	1024.052433	-56.652257	362.771136	936.210460	-62.033753	355.344936	911.783269	-190.000443	293.377603	850.220849	-31.940256	260.775622	768.172431	-42.550634	194.016335	713.997345	-43.955272	285.943696	752.482814	-67.519033	121.705707	623.435943	-55.305683	153.436959	624.490221	-134.990315	68.468201	633.125458	-105.094831	244.847572	464.491484	-89.639092	161.858378	498.983537	-34.490106	48.383500	856.025351	-429.125971	105.494612	792.692977	-412.609867	135.731192	810.204115	-399.677943	122.396218	705.990369	-400.834223	167.680210	610.099699	-373.845268	146.922713	602.750846	-259.226166	90.052027	243.617195	-376.953576	36.726265	218.812011	-337.760440	201.856680	144.145409	-391.543282	119.104749	498.032094	-409.698004	135.795024	413.799210	-394.353689	107.092202	329.212994	-391.920998	163.552826	414.901433	-368.180834	284.649325	163.807996	-330.857536	-204.923030	834.498624	-225.527461	-78.364734	81.536296	-423.787817	-102.756737	80.567785	-24.465277	
1256	6.2800	385.346805	1268.031108	15.298980	458.874016	1219.356461	-312.354936	395.426226	1312.361847	-165.528802	381.766666	1167.427084	-139.055532	439.038475	1004.422778	65.356355	636.010359	886.777091	-7.831443	457.010007	966.877386	-444.468911	651.353798	881.051294	-371.166178	-104.594341	1096.699768	-261.401227	87.747709	1098.705293	-375.905697	32.397749	1151.067605	-76.518751	102.136885	1019.974348	-328.764449	45.485572	1064.720742	-93.949637	-80.408938	1160.673135	-210.244736	-48.972748	1158.095132	-316.514408	-59.538231	1045.373191	-51.994704	-8.674191	964.879251	-423.622110	79.926353	984.715316	-22.148919	166.625851	994.069920	-39.204956	245.416898	962.739979	-34.644176	168.907270	1027.997877	-55.475642	362.086744	944.367173	-60.536701	356.877741	920.146387	-188.490154	295.837684	856.767032	-30.864659	264.730150	774.051428	-41.653772	198.710802	718.793235	-43.474540	290.640794	759.304884	-65.699512	128.959656	624.895979	-55.039404	160.134972	626.542022	-134.305769	74.679997	632.265275	-104.797779	255.187402	468.220411	-89.048306	171.665791	500.498667	-33.984053	47.927645	858.169083	-428.915645	104.599763	794.420009	-412.706521	134.847627	811.684308	-399.245149	121.040142	707.484064	-401.534406	164.459444	610.143283	-374.803894	142.647819	603.775750	-259.578210	80.895700	244.633134	-377.592568	27.478035	220.512418	-338.137998	191.382765	143.382908	-391.999615	114.081874	498.930700	-410.263981	129.314650	414.246638	-395.087220	99.194912	330.269227	-392.566005	157.441288	414.976476	-369.263889	274.543895	161.580386	-331.451067	-205.116098	834.581741	-225.659280	-78.404352	81.535189	-423.791119	-102.790324	80.582883	-24.469401	
